<svg width="1400" height="372" viewBox="0 0 1400 372" fill="none" xmlns="http://www.w3.org/2000/svg">
<path d="M0 366.904V314.416H52.9351V366.904H0Z" fill="#002BBA" style="fill:#002BBA;fill:color(display-p3 0.0000 0.1686 0.7294);fill-opacity:1;"/>
<path d="M183.333 372C151.127 372 125.43 364.696 106.243 350.088C87.0566 335.14 76.0927 314.077 73.3518 286.899H112.925C115.323 303.545 122.689 316.285 135.024 325.118C147.358 333.951 163.804 338.367 184.361 338.367C202.52 338.367 216.739 334.97 227.018 328.175C237.296 321.381 242.436 311.699 242.436 299.129C242.436 290.296 239.523 282.652 233.699 276.197C227.874 269.403 216.225 263.797 198.751 259.381L156.609 248.679C132.625 242.564 114.638 233.222 102.646 220.652C90.6541 207.742 84.6583 192.455 84.6583 174.789C84.6583 152.367 93.0525 134.701 109.841 121.792C126.629 108.542 149.414 101.918 178.194 101.918C206.632 101.918 229.758 108.712 247.575 122.301C265.391 135.89 275.498 154.745 277.897 178.866H238.324C235.926 164.937 229.416 154.236 218.795 146.762C208.173 139.288 194.126 135.551 176.652 135.551C159.864 135.551 146.844 138.778 137.593 145.233C128.343 151.348 123.717 160.181 123.717 171.731C123.717 180.564 126.972 188.208 133.482 194.663C140.334 201.118 151.641 206.553 167.401 210.97L208.516 222.181C232.842 228.636 251.172 238.488 263.507 251.737C275.841 264.986 282.008 280.953 282.008 299.638C282.008 322.4 273.271 340.236 255.798 353.145C238.324 365.715 214.169 372 183.333 372Z" fill="#002BBA" style="fill:#002BBA;fill:color(display-p3 0.0000 0.1686 0.7294);fill-opacity:1;"/>
<path d="M421.621 371.49C392.499 371.49 371.256 365.036 357.894 352.126C344.874 338.877 338.364 319.852 338.364 295.052V46.3726L379.479 31.0849V294.542C379.479 309.151 383.248 319.852 390.785 326.647C398.323 333.441 410.657 336.838 427.788 336.838C434.641 336.838 440.465 336.499 445.262 335.819C450.401 334.8 454.513 333.611 457.597 332.252V366.904C454.17 368.263 449.202 369.282 442.693 369.962C436.525 370.981 429.502 371.49 421.621 371.49ZM284.401 141.666V107.014H457.597V141.666H284.401Z" fill="#002BBA" style="fill:#002BBA;fill:color(display-p3 0.0000 0.1686 0.7294);fill-opacity:1;"/>
<path d="M572.753 372C555.622 372 540.376 368.603 527.014 361.808C513.651 354.674 503.201 344.822 495.664 332.252C488.126 319.342 484.357 304.564 484.357 287.918V107.014H525.472V277.216C525.472 296.921 530.269 311.699 539.862 321.551C549.798 331.403 563.845 336.329 582.004 336.329C598.45 336.329 613.012 332.592 625.689 325.118C638.366 317.644 648.302 307.282 655.497 294.033C663.034 280.444 666.803 264.986 666.803 247.66L673.484 309.321C664.919 328.685 651.557 343.973 633.398 355.184C615.239 366.395 595.024 372 572.753 372ZM669.373 366.904V305.753H666.803V107.014H707.918V366.904H669.373Z" fill="#002BBA" style="fill:#002BBA;fill:color(display-p3 0.0000 0.1686 0.7294);fill-opacity:1;"/>
<path d="M959.187 366.904V306.263L964.326 307.792C957.816 327.496 945.824 343.123 928.35 354.674C911.219 366.225 890.662 372 866.679 372C843.038 372 822.309 366.395 804.493 355.184C787.019 343.973 773.314 328.345 763.378 308.301C753.785 288.258 748.988 264.816 748.988 237.978C748.988 210.8 753.956 187.019 763.892 166.636C773.828 146.252 787.704 130.455 805.521 119.244C823.337 108.033 844.237 102.427 868.221 102.427C892.889 102.427 913.618 108.373 930.406 120.263C947.195 132.153 958.673 148.97 964.84 170.712L956.617 171.731V0H997.731V366.904H959.187ZM874.388 336.329C900.77 336.329 921.327 327.496 936.06 309.83C951.135 291.825 958.673 267.364 958.673 236.449C958.673 206.214 951.135 182.263 936.06 164.597C920.984 146.931 900.427 138.099 874.388 138.099C848.348 138.099 827.963 146.931 813.23 164.597C798.497 182.263 791.131 206.723 791.131 237.978C791.131 268.553 798.497 292.674 813.23 310.34C827.963 327.666 848.348 336.329 874.388 336.329Z" fill="#002BBA" style="fill:#002BBA;fill:color(display-p3 0.0000 0.1686 0.7294);fill-opacity:1;"/>
<path d="M1059.63 366.904V107.014H1100.75V366.904H1059.63ZM1056.55 47.9014V0H1103.83V47.9014H1056.55Z" fill="#002BBA" style="fill:#002BBA;fill:color(display-p3 0.0000 0.1686 0.7294);fill-opacity:1;"/>
<path d="M1270.49 372C1244.79 372 1222.18 366.055 1202.65 354.164C1183.12 342.274 1167.87 326.137 1156.91 305.753C1146.29 285.03 1140.98 261.759 1140.98 235.94C1140.98 209.781 1146.46 186.679 1157.42 166.636C1168.39 146.592 1183.46 130.795 1202.65 119.244C1222.18 107.693 1244.79 101.918 1270.49 101.918C1296.53 101.918 1319.14 107.693 1338.33 119.244C1357.86 130.795 1372.93 146.592 1383.55 166.636C1394.52 186.679 1400 209.781 1400 235.94C1400 261.759 1394.52 285.03 1383.55 305.753C1372.93 326.137 1357.86 342.274 1338.33 354.164C1319.14 366.055 1296.53 372 1270.49 372ZM1270.49 337.348C1288.31 337.348 1303.72 333.101 1316.74 324.608C1329.76 315.775 1339.87 303.715 1347.06 288.427C1354.26 273.14 1357.86 255.474 1357.86 235.43C1357.86 205.534 1349.81 181.584 1333.7 163.578C1317.94 145.573 1296.87 136.57 1270.49 136.57C1244.45 136.57 1223.38 145.573 1207.28 163.578C1191.17 181.584 1183.12 205.534 1183.12 235.43C1183.12 255.474 1186.72 273.14 1193.91 288.427C1201.11 303.715 1211.22 315.775 1224.24 324.608C1237.6 333.101 1253.02 337.348 1270.49 337.348Z" fill="#002BBA" style="fill:#002BBA;fill:color(display-p3 0.0000 0.1686 0.7294);fill-opacity:1;"/>
</svg>
